<svg width="99" height="94" viewBox="0 0 99 94" fill="none"
    xmlns="http://www.w3.org/2000/svg">
    <path d="M87.3576 61.5459C87.3576 56.0279 90.7623 53.2103 90.2927 48.9837C89.3534 42.9962 85.9488 39.7089 70.9212 39.7089C56.1284 39.7089 50.6104 41.8222 50.6104 48.5141C50.6104 52.3884 55.3065 52.5058 55.3065 55.2061C55.3065 56.6149 54.6021 58.0238 50.493 58.0238C44.7403 58.0238 40.1615 55.4409 40.1615 47.8097C40.1615 37.8304 44.6229 33.8387 51.7845 33.8387C60.4723 33.8387 64.6988 36.3042 77.9653 36.3042C85.4791 36.3042 89.0012 32.5473 89.0012 25.6205C89.0012 14.115 82.3092 8.59708 52.4889 8.47968C16.7983 8.47968 8.69751 21.1592 8.69751 46.5183C8.69751 73.0514 15.7417 85.7309 39.3397 85.7309C54.7195 85.7309 59.8853 80.0956 61.7637 73.4036C62.4681 70.5859 63.6422 69.4119 65.5206 69.4119C67.5165 69.4119 68.4557 70.7033 68.4557 73.2862C68.4557 74.5776 67.5165 75.7516 67.5165 77.5127C67.5165 81.6218 70.4515 85.0265 80.9004 85.0265C87.9446 85.0265 90.2927 81.7392 90.8797 77.2779C91.4667 70.7033 87.2402 66.0072 87.3576 61.5459Z" fill="url(#paint0_linear)"/>
    <path fill-rule="evenodd" clip-rule="evenodd" d="M95.356 61.7128C95.3616 61.7558 95.3944 61.9992 95.5678 62.5468C95.7603 63.1547 95.975 63.7087 96.2841 64.5059C96.4256 64.8708 96.5868 65.2868 96.7747 65.7822C97.8219 68.543 99.3116 72.7973 98.848 77.9893L98.8331 78.1558L98.8113 78.3215C98.3823 81.5823 97.152 85.6483 93.6475 88.7856C90.1361 91.9292 85.5909 93.0265 80.9004 93.0265C75.0793 93.0265 69.8304 92.1284 65.8415 89.4595C64.6026 88.6306 63.5727 87.693 62.7289 86.6818C61.9004 87.4222 60.9868 88.1253 59.9796 88.781C54.7568 92.1815 47.8931 93.7309 39.3397 93.7309C26.1264 93.7309 15.4788 90.1147 8.6963 80.7755C2.4015 72.1079 0.69751 60.0657 0.69751 46.5183C0.69751 33.3904 2.69417 20.9895 11.6175 12.2681C20.4353 3.64982 34.125 0.479675 52.4889 0.479675H52.5046L52.5204 0.479737C67.4468 0.538506 78.3541 1.87193 85.6433 5.6948C89.59 7.76464 92.6612 10.6485 94.6118 14.4613C96.4905 18.1336 97.0012 22.0316 97.0012 25.6205C97.0012 29.7367 96.0836 34.1064 93.3058 37.6908C96.3756 40.6472 97.6605 44.3302 98.196 47.744L98.2239 47.9216L98.2437 48.1003C98.7099 52.2961 97.2635 55.7562 96.5282 57.5152C96.4816 57.6269 96.4378 57.7317 96.3975 57.8294C95.6096 59.7407 95.3576 60.5217 95.3576 61.5459V61.6511L95.356 61.7128ZM86.7978 42.6678C84.9435 41.3561 82.1628 40.4649 77.9653 40.0256C75.9589 39.8156 73.6287 39.7089 70.9212 39.7089C62.9462 39.7089 57.6669 40.3231 54.4946 41.9378C51.7825 43.3182 50.6104 45.4299 50.6104 48.5141C50.6104 49.0903 50.7143 49.5835 50.8912 50.0143C50.8976 50.03 50.9042 50.0457 50.9108 50.0612C51.3894 51.1817 52.3643 51.8775 53.2746 52.5272C54.3344 53.2836 55.3065 53.9775 55.3065 55.2061C55.3065 56.6149 54.6021 58.0238 50.493 58.0238C49.6049 58.0238 48.7448 57.9622 47.9252 57.83C47.5289 57.7661 47.1421 57.6857 46.7661 57.5877C42.8832 56.5759 40.1615 53.6932 40.1615 47.8097C40.1615 37.8304 44.6229 33.8387 51.7845 33.8387C52.2206 33.8387 52.6455 33.845 53.0608 33.8568C56.3462 33.9501 59.0351 34.3932 61.9727 34.8772C64.5673 35.3048 67.356 35.7643 70.9212 36.043C72.9745 36.2036 75.2855 36.3042 77.9653 36.3042C81.7035 36.3042 84.4537 35.3743 86.2737 33.5869C88.1119 31.7815 89.0012 29.1012 89.0012 25.6205C89.0012 14.115 82.3092 8.59708 52.4889 8.47968C16.7983 8.47968 8.69751 21.1592 8.69751 46.5183C8.69751 73.0514 15.7417 85.7309 39.3397 85.7309C50.7531 85.7309 56.5414 82.6275 59.5356 78.2918C59.7121 78.0363 59.8788 77.7764 60.0365 77.5127C60.5117 76.7178 60.9039 75.8874 61.2291 75.0322C61.4322 74.4982 61.6091 73.9545 61.7637 73.4036C61.7736 73.3641 61.7835 73.325 61.7936 73.2862C62.5011 70.5533 63.6685 69.4119 65.5206 69.4119C67.5165 69.4119 68.4557 70.7033 68.4557 73.2862C68.4557 73.8537 68.2743 74.3985 68.071 74.9804C68.0609 75.0094 68.0507 75.0385 68.0405 75.0676C68.0301 75.0972 68.0197 75.1269 68.0093 75.1567C67.822 75.6927 67.6298 76.2643 67.5522 76.9163C67.5294 77.1078 67.5165 77.3062 67.5165 77.5127C67.5165 78.3078 67.6264 79.0765 67.8793 79.7993C68.9336 82.8119 72.4734 85.0265 80.9004 85.0265C87.9446 85.0265 90.2927 81.7392 90.8797 77.2779C91.2118 73.5581 90.003 70.4396 88.912 67.6247C88.0746 65.4645 87.3066 63.483 87.3576 61.5459C87.3576 58.7676 88.2207 56.6739 89.0178 54.7402C89.8039 52.8334 90.5258 51.0822 90.2927 48.9837C89.8767 46.3317 88.977 44.2094 86.7978 42.6678Z" fill="black"/>
    <defs>
        <linearGradient id="paint0_linear" x1="-23.6794" y1="117.92" x2="110.844" y2="20.2447" gradientUnits="userSpaceOnUse">
            <stop stop-color="#0AFF31"/>
            <stop offset="0.901042" stop-color="#00FFF0"/>
        </linearGradient>
    </defs>
</svg>
